# xmcd CD database file
#
# Track frame offsets:
#	182
#	12242
#	29077
#	43455
#	58200
#	73730
#	85720
#	97295
#	111007
#	121937
#	132930
#	145482
#	156035
#
# Disc length: 2180 seconds
#
# Revision: 1
# Processed by: cddbd v1.5.1PL0 Copyright (c) Steve Scherf et al.
# Submitted via: CDex 1.51
#
DISCID=c208820d
DTITLE=Stéphane Grappelly - le toit de Paris
DYEAR=1969
DGENRE=Jazz
TTITLE0=Rain Check [B. Strayhorn]
TTITLE1=Camélia [R. Fol]
TTITLE2=I Got It Bad And That Ain't Good [D. Ellington]
TTITLE3=Andrée [S. Grappelli]
TTITLE4=What Am I Here For [D. Ellington]
TTITLE5=Tabou [E. Lecuona]
TTITLE6=Denise [S. Grappelli]
TTITLE7=Flamingo [T. Grouya]
TTITLE8=Time On My Hands [Youmans - Adamson - Gordon]
TTITLE9=Zelda [T. Ovio]
TTITLE10=Anna [R. Fol]
TTITLE11=Light [S. Grappelli]
TTITLE12=So Long [A. Romans]
EXTD=YEAR: 1969
EXTT0=
EXTT1=
EXTT2=
EXTT3=
EXTT4=
EXTT5=
EXTT6=
EXTT7=
EXTT8=
EXTT9=
EXTT10=
EXTT11=
EXTT12=
PLAYORDER=
